# xmcd CD database file
#
# Track frame offsets:
#	150
#	12739
#	27961
#	41249
#	54697
#	68988
#	81024
#	92772
#	104589
#	118832
#	131731
#	145424
#	158163
#	174400
#	185780
#	198480
#	211367
#	223535
#	236632
#	248291
#	262715
#	275613
#	288026
#	301358
#	313226
#	325197
#
# Disc length: 4493 seconds
#
# Revision: 1
# Processed by: cddbd v1.5.1PL0 Copyright (c) Steve Scherf et al.
# Submitted via: Feurio! 1.68 - http://www.feurio.com
#
DISCID=89118b1a
DTITLE=Various Artist - He Got Out His Big Ten Inch - CD2
DYEAR=2004
DGENRE=blues
TTITLE0=Mae Glover - Gas Man Blues
TTITLE1=Cow Cow Davenport - I'm Gonna Tell You In Front So You Won't Feel Hurt 
TTITLE1=Behind
TTITLE2=Bo Carter - Don't Mash My Digger So Deep
TTITLE3=Memphis Minnie - My Butcher Man
TTITLE4=Barbecue Bob - She Shook Her Gin
TTITLE5=Walter Davis - Poor Grinder Blues
TTITLE6=Georgia Tom and Jane Lucas - What's That I Smell?
TTITLE7=Papa Charlie Jackson - Shave 'Em Dry
TTITLE8=Dorothy Baker - Steady Grinding Blues
TTITLE9=R.T. Hanen - She's Got Jordan River in Her Hips
TTITLE10=Jesse James - Sweet Petunia
TTITLE11=Lucille Bogan - Struttin' My Stuff
TTITLE12=Carl Rafferty - Dresser With The Drawers
TTITLE13=Kansas City Kitty and Georgia Tom - Fish House Blues
TTITLE14=Memphis Jug Band - Take Your Finger Off It
TTITLE15=Jimmie Gordon - Little Red Dress (Mary Usta Wear)
TTITLE16=Victoria Spivey - One Hour Mama
TTITLE17=Roosevelt Sykes - Hard Lead Pencil
TTITLE18=Tampa Red - Let Me Play With Your Poodle
TTITLE19=Georgia Pine Boy - One More Greasing
TTITLE20=Stella Johnson - Don't Come Over
TTITLE21=Little Boy Fuller - Bed Springs Blues
TTITLE22=Brownie McGhee - Auto Mechanic Blues
TTITLE23=Marylin Scott - I Got What My Daddy Likes
TTITLE24=Ralph Willis - Boar Hog Blues
TTITLE25=Champion Jack Dupree - I'm A Doctor For Women
EXTD=YEAR: 2004
EXTT0=
EXTT1=
EXTT2=
EXTT3=
EXTT4=
EXTT5=
EXTT6=
EXTT7=
EXTT8=
EXTT9=
EXTT10=
EXTT11=
EXTT12=
EXTT13=
EXTT14=
EXTT15=
EXTT16=
EXTT17=
EXTT18=
EXTT19=
EXTT20=
EXTT21=
EXTT22=
EXTT23=
EXTT24=
EXTT25=
PLAYORDER=
